<svg width="195" height="200" viewBox="0 0 195 200" fill="none" xmlns="http://www.w3.org/2000/svg">
<path d="M120.912 81.1363C120.147 79.8254 119.098 78.8047 117.787 78.0743C116.892 77.5567 115.576 77.073 113.859 76.6279C115.455 76.091 116.752 75.4089 117.724 74.5576C118.716 73.7352 119.436 72.7726 119.935 71.6842C120.447 70.6055 120.718 69.4687 120.718 68.2739C120.718 66.5905 120.22 65.0765 119.257 63.6785C118.3 62.3144 116.902 61.2211 115.088 60.5101C114.381 60.2053 113.54 60.007 112.63 59.8135V53.3557H106.448V59.3781H102.462V53.3557H96.2656V59.3781H86.8232V64.4283H88.2889C89.2128 64.4283 89.8997 64.5298 90.2045 64.6992C90.5721 64.8539 90.7995 65.1103 90.9397 65.4054C91.0945 65.7053 91.1477 66.3922 91.1477 67.4806V87.8505C91.1477 88.9389 91.0945 89.5967 90.9397 89.9112C90.7995 90.2207 90.5721 90.4578 90.2045 90.6271C89.8997 90.7819 89.2128 90.8738 88.2889 90.8738H86.8232V95.9288H96.2608V101.946H102.448V95.9336H105.974C106.139 95.9336 106.289 95.9336 106.448 95.9336V101.951H112.635V95.4015C113.656 95.1935 114.584 94.9661 115.349 94.6517C117.482 93.8052 119.146 92.533 120.317 90.9028C121.473 89.3162 122.068 87.5312 122.068 85.5624C122.073 83.9564 121.695 82.4569 120.912 81.1363ZM109.055 65.715C109.975 66.0149 110.671 66.5035 111.174 67.171C111.658 67.8531 111.88 68.6754 111.88 69.638C111.88 70.562 111.624 71.3843 111.131 72.0857C110.637 72.7871 109.868 73.3241 108.867 73.6578C107.856 74.0158 106.332 74.1851 104.228 74.1851H100.194V65.2651H104.228C106.521 65.2651 108.156 65.4151 109.055 65.715ZM105.06 90.0853H102.38C101.504 90.0853 100.967 90.0563 100.764 89.9402C100.556 89.8579 100.421 89.6887 100.329 89.442C100.227 89.263 100.218 88.6002 100.184 87.4925V79.569H104.92C107.009 79.569 108.538 79.7673 109.559 80.1447C110.57 80.5316 111.324 81.0783 111.847 81.8377C112.354 82.602 112.582 83.5259 112.582 84.595C112.582 85.8527 112.224 86.9459 111.522 87.865C110.797 88.7744 109.926 89.3742 108.915 89.6886C107.904 89.9402 106.617 90.0853 105.06 90.0853ZM182.902 77.6728C182.8 75.9991 182.592 74.3641 182.365 72.5259C181.968 69.0914 181.552 65.1103 181.257 58.9379L181.001 54.4586L176.487 55.0004C176.41 55.0197 176.1 55.0439 175.583 55.0439C173.072 55.0439 166.803 54.299 161.937 47.251C160.873 45.6741 159.915 44.1261 158.943 42.5733C156.901 39.342 154.816 36.0236 152.185 32.9713C154.216 28.6468 157.041 24.5447 157.607 23.6789C160.776 19.9928 160.747 16.926 160.113 15.0298C158.725 10.802 154.086 9.58296 153.143 9.39915L152.765 9.30724C150.971 9.07505 149.05 8.96863 147.144 8.96863C137.126 8.96863 128.076 12.0451 122.871 14.309C115.736 12.021 108.301 10.8697 100.745 10.8697C81.4344 10.8697 64.0105 18.4642 51.6899 30.4946C50.2193 29.6529 48.6666 28.908 46.9251 28.2743C45.9335 27.9405 44.8306 27.689 43.6938 27.4423L41.9185 27.1859L40.3609 27.0843C38.0245 27.0553 36.0557 27.4423 34.0192 27.9647C33.7677 27.5584 33.5403 27.1956 33.2549 26.8424C32.776 26.2281 32.1907 25.7492 31.5861 25.2558C31.2861 25.0043 30.8846 24.8301 30.5364 24.6221C30.1784 24.3948 29.9317 24.3512 29.6511 24.2448C28.2048 23.7417 26.8407 23.7272 25.6071 23.8385C23.1401 24.1336 21.1423 24.9462 19.4783 25.7734C17.8143 26.6103 16.5227 27.4761 15.4827 28.2404C14.4862 28.9805 13.7316 29.6674 13.2672 30.0399C12.7786 30.5478 12.5561 30.7897 12.5561 30.7897C12.5561 30.7897 12.8415 30.5865 13.3881 30.2044C13.8864 29.8948 14.6894 29.3433 15.7874 28.7774C16.8661 28.2162 18.2448 27.5584 19.8895 26.9924C21.5487 26.3829 23.4884 25.8702 25.5684 25.8702C26.5746 25.8702 27.6485 26.0491 28.4902 26.3829L29.3512 26.8134C29.4818 26.9924 29.6608 27.0892 29.8156 27.1956C29.9462 27.302 30.1445 27.5584 30.3235 27.7615C30.4735 27.9647 30.6912 28.1437 30.8121 28.4194C30.9572 28.5742 31.0249 28.7774 31.1362 28.9225C30.1445 29.2998 29.1722 29.7593 28.2628 30.3205C26.6859 31.1622 25.2105 32.4924 24.0882 34.0307L24.0108 34.1371L23.9431 34.2338C23.4594 35.1771 23.1014 36.222 22.8741 37.3152C22.6757 38.4229 22.5403 39.5936 22.9031 40.9529C23.1014 41.6059 23.4594 42.3266 23.977 42.912C24.5284 43.5263 25.2105 44.0197 25.9071 44.2471C26.6085 44.5179 27.2325 44.605 27.8807 44.6534H28.8627C29.2013 44.6244 29.3174 44.605 29.5447 44.576L29.8446 44.5083L30.2751 44.4599L30.4541 44.3922L31.2813 44.1164C31.7844 43.9326 32.2971 43.6859 32.776 43.3522C33.7193 42.8346 34.5513 41.9445 35.1076 41.0883C36.2976 39.3033 36.5927 37.3587 36.5249 35.6173C36.4862 34.4902 36.3073 33.4502 36.0073 32.386C37.5843 32.0474 39.1419 31.7958 40.5689 31.8442C41.696 31.8732 42.3297 31.941 43.2149 32.1199C44.1002 32.2505 44.9515 32.5069 45.8126 32.7536C46.7268 33.0632 47.5975 33.4357 48.5166 33.842C39.1419 44.4841 33.4823 58.0479 33.4823 72.8065C33.4823 93.2634 46.4801 113.43 59.5166 123.105C59.8311 124.145 60.0342 126.742 59.9713 129.088C59.9713 134.917 64.649 139.682 70.4102 139.682H88.463C92.212 139.682 95.54 137.675 97.4314 134.598C99.6517 134.69 101.824 134.69 104.112 134.598C105.935 137.675 109.273 139.682 113.046 139.682H131.085C136.875 139.682 141.572 134.917 141.572 129.088L141.475 128.179C140.986 126.08 140.73 123.376 140.827 122.234L141.789 121.262C149.147 114.083 156.756 106.648 162.367 97.5783C164.588 94.0084 168.52 90.3223 172.323 90.1917C173.788 90.0901 177.673 89.916 180.44 86.8637C182.35 84.7062 183.192 81.562 182.902 77.6728ZM31.7989 38.7954C31.6876 39.0518 31.4845 39.2308 31.2813 39.3904C31.1217 39.6178 30.8846 39.7 30.6573 39.8645L30.309 40.0483C30.1784 40.116 30.0575 40.1402 29.9027 40.1547L29.4722 40.2853L29.3802 40.3095L29.1867 40.3337L28.5192 40.4014C28.4225 40.3627 28.3402 40.3627 28.2193 40.3627C28.0161 40.3337 27.7501 40.3095 27.6775 40.2273C27.4502 40.116 27.4792 40.1547 27.3679 39.8451C27.1986 39.163 27.5082 37.6732 28.1516 36.4058C28.7466 35.5641 30.4928 34.3741 32.7228 33.4502C32.8292 34.1032 32.8486 34.7611 32.8292 35.4383C32.8147 36.7105 32.4326 37.9489 31.7989 38.7954ZM65.065 42.9894L64.9296 43.0087C64.5136 43.0087 64.0927 42.8297 63.7831 42.5056C63.4832 42.196 63.3042 41.7607 63.3381 41.335C63.3381 40.8996 63.5074 40.4933 63.8412 40.2031C63.967 40.0531 79.4995 25.7686 101.205 25.7686C108.388 25.7686 115.475 27.3504 122.334 30.3785C122.721 30.5817 123.04 30.9155 123.195 31.3508C123.325 31.7281 123.301 32.1635 123.117 32.5698C122.856 33.1068 122.232 33.4792 121.628 33.4792C121.376 33.4792 121.149 33.4309 120.931 33.3486C114.551 30.4753 107.899 29.0096 101.19 29.0096C80.8927 29.0096 66.226 42.4137 66.0905 42.554C65.8196 42.8201 65.4423 42.9894 65.065 42.9894ZM103.957 110.083C85.1785 110.083 69.9604 95.1209 69.9604 76.686C69.9604 58.2462 85.1785 43.3135 103.957 43.3135C122.764 43.3135 137.963 58.251 137.963 76.686C137.963 95.1209 122.764 110.083 103.957 110.083Z" fill="url(#paint0_linear_5:188)" style="mix-blend-mode:darken"/>
<path d="M4.58473 191.193C4.17576 191.193 3.83136 191.053 3.55154 190.773C3.27172 190.493 3.13181 190.149 3.13181 189.74V169.98C3.13181 169.571 3.27172 169.227 3.55154 168.947C3.83136 168.646 4.17576 168.495 4.58473 168.495H12.1076C15.035 168.495 17.2305 169.098 18.6941 170.303C20.1578 171.509 20.8897 173.091 20.8897 175.049C20.8897 176.341 20.5237 177.525 19.7919 178.601C19.0816 179.656 18.0376 180.42 16.6601 180.893C18.2098 181.302 19.2645 182.271 19.8242 183.799C20.4054 185.306 20.6959 186.791 20.6959 188.255V189.74C20.6959 190.149 20.556 190.493 20.2762 190.773C19.9964 191.053 19.652 191.193 19.243 191.193C18.791 191.193 18.4251 191.064 18.1453 190.805C17.887 190.526 17.7578 190.17 17.7578 189.74V188.771C17.7578 187.695 17.661 186.705 17.4672 185.801C17.2735 184.875 16.8107 184.057 16.0789 183.347C15.3471 182.615 14.2385 182.249 12.7533 182.249H6.06993V189.74C6.06993 190.149 5.91926 190.493 5.61791 190.773C5.33809 191.053 4.9937 191.193 4.58473 191.193ZM11.9139 179.473C13.765 179.473 15.2287 179.107 16.3049 178.375C17.4027 177.643 17.9515 176.61 17.9515 175.275C17.9515 173.984 17.478 172.994 16.5309 172.305C15.6054 171.616 14.0125 171.272 11.7524 171.272H6.06993V179.473H11.9139Z" fill="url(#paint1_linear_5:188)" style="mix-blend-mode:darken"/>
<path d="M32.8977 191.354C30.2716 191.354 28.216 190.612 26.7308 189.126C25.2672 187.62 24.5353 185.51 24.5353 182.798C24.5353 181.27 24.8151 179.86 25.3748 178.569C25.9344 177.277 26.7954 176.233 27.9577 175.437C29.1201 174.64 30.5515 174.242 32.2519 174.242C33.8447 174.242 35.2223 174.619 36.3846 175.372C37.547 176.104 38.4295 177.094 39.0322 178.343C39.6349 179.569 39.9362 180.915 39.9362 182.378C39.9362 182.787 39.7963 183.132 39.5165 183.412C39.2582 183.691 38.903 183.831 38.451 183.831H27.5057C27.6779 185.338 28.2376 186.511 29.1846 187.351C30.1317 188.19 31.4555 188.61 33.1559 188.61C34.06 188.61 34.8456 188.524 35.5129 188.352C36.2017 188.179 36.8689 187.932 37.5147 187.609C37.6869 187.523 37.8806 187.48 38.0959 187.48C38.4402 187.48 38.7416 187.598 38.9999 187.835C39.2582 188.072 39.3873 188.373 39.3873 188.739C39.3873 189.213 39.1075 189.611 38.5479 189.934C37.7084 190.407 36.8797 190.762 36.0618 190.999C35.2438 191.236 34.1891 191.354 32.8977 191.354ZM37.0304 181.442C36.9658 180.387 36.686 179.505 36.1909 178.795C35.7174 178.084 35.1255 177.568 34.4151 177.245C33.7048 176.9 32.9837 176.728 32.2519 176.728C31.5201 176.728 30.799 176.9 30.0887 177.245C29.3784 177.568 28.7864 178.084 28.3129 178.795C27.8394 179.505 27.5703 180.387 27.5057 181.442H37.0304Z" fill="url(#paint2_linear_5:188)" style="mix-blend-mode:darken"/>
<path d="M50.6363 191.354C49.3018 191.354 48.0318 191.021 46.8265 190.353C45.6426 189.665 44.674 188.674 43.9206 187.383C43.1888 186.07 42.8229 184.542 42.8229 182.798C42.8229 181.055 43.1888 179.537 43.9206 178.246C44.674 176.933 45.6426 175.943 46.8265 175.275C48.0318 174.587 49.3018 174.242 50.6363 174.242C52.7457 174.242 54.5861 175.06 56.1574 176.696V168.786C56.1574 168.355 56.2973 168 56.5771 167.72C56.8785 167.44 57.2336 167.3 57.6426 167.3C58.0516 167.3 58.396 167.451 58.6758 167.752C58.9556 168.032 59.0955 168.377 59.0955 168.786V189.74C59.0955 190.149 58.9556 190.493 58.6758 190.773C58.396 191.053 58.0516 191.193 57.6426 191.193C57.2336 191.193 56.8785 191.053 56.5771 190.773C56.2973 190.493 56.1574 190.149 56.1574 189.74V188.9C54.5861 190.536 52.7457 191.354 50.6363 191.354ZM51.0561 188.61C52.0462 188.61 52.9718 188.395 53.8327 187.964C54.7153 187.512 55.4901 186.92 56.1574 186.188V179.408C55.4901 178.676 54.7153 178.095 53.8327 177.665C52.9718 177.213 52.0462 176.987 51.0561 176.987C49.4632 176.987 48.1825 177.492 47.2139 178.504C46.2453 179.516 45.761 180.947 45.761 182.798C45.761 184.649 46.2453 186.081 47.2139 187.092C48.1825 188.104 49.4632 188.61 51.0561 188.61Z" fill="url(#paint3_linear_5:188)" style="mix-blend-mode:darken"/>
<path d="M69.8103 191.354C68.6264 191.354 67.5932 191.074 66.7107 190.515C65.8497 189.955 65.1825 189.191 64.7089 188.222C64.2569 187.254 64.0309 186.188 64.0309 185.026V175.856C64.0309 175.448 64.1708 175.103 64.4506 174.823C64.752 174.543 65.1071 174.404 65.5161 174.404C65.9251 174.404 66.2695 174.543 66.5493 174.823C66.8291 175.103 66.969 175.448 66.969 175.856V184.703C66.969 187.329 68.1529 188.642 70.5206 188.642C71.5968 188.642 72.5547 188.362 73.3941 187.803C74.2551 187.243 75.0623 186.49 75.8156 185.543V175.856C75.8156 175.448 75.9556 175.103 76.2354 174.823C76.5367 174.543 76.8919 174.404 77.3008 174.404C77.7098 174.404 78.0542 174.543 78.334 174.823C78.6139 175.103 78.7538 175.448 78.7538 175.856V189.708C78.7538 190.117 78.6139 190.472 78.334 190.773C78.0542 191.053 77.7098 191.193 77.3008 191.193C76.8919 191.193 76.5367 191.053 76.2354 190.773C75.9556 190.472 75.8156 190.117 75.8156 189.708V188.384C74.9977 189.288 74.1152 190.009 73.1681 190.547C72.221 191.085 71.1017 191.354 69.8103 191.354Z" fill="url(#paint4_linear_5:188)" style="mix-blend-mode:darken"/>
<path d="M83.9416 191.193C83.5111 191.193 83.1667 191.064 82.9084 190.805C82.6717 190.526 82.5533 190.16 82.5533 189.708C82.5533 189.385 82.6609 189.083 82.8762 188.804L87.8806 182.895L82.8762 176.793C82.6394 176.491 82.521 176.179 82.521 175.856C82.521 175.426 82.6609 175.082 82.9407 174.823C83.2205 174.543 83.5649 174.404 83.9739 174.404C84.4905 174.404 84.878 174.587 85.1363 174.952L89.6564 180.538L94.1443 174.952C94.4026 174.587 94.7793 174.404 95.2744 174.404C95.7049 174.404 96.06 174.543 96.3398 174.823C96.6197 175.082 96.7596 175.404 96.7596 175.792C96.7596 176.115 96.6519 176.416 96.4367 176.696L91.3353 182.701L96.3721 188.771C96.6089 189.03 96.7273 189.342 96.7273 189.708C96.7273 190.117 96.5981 190.472 96.3398 190.773C96.0815 191.053 95.7156 191.193 95.2421 191.193C94.7685 191.193 94.3919 190.999 94.112 190.612L89.5273 185.123L85.2008 190.547C84.878 190.978 84.4582 191.193 83.9416 191.193Z" fill="url(#paint5_linear_5:188)" style="mix-blend-mode:darken"/>
<path d="M107.608 191.193C107.178 191.193 106.791 191.074 106.446 190.838C106.123 190.579 105.876 190.213 105.704 189.74L99.3753 170.303C99.3107 170.066 99.2785 169.883 99.2785 169.754C99.2569 169.345 99.3753 169.012 99.6336 168.753C99.9134 168.474 100.269 168.334 100.699 168.334C101.043 168.334 101.345 168.441 101.603 168.656C101.861 168.872 102.044 169.152 102.152 169.496L107.576 187.318L113.033 169.561C113.14 169.195 113.345 168.904 113.646 168.689C113.969 168.452 114.324 168.334 114.712 168.334C115.099 168.334 115.443 168.452 115.745 168.689C116.068 168.904 116.283 169.195 116.391 169.561L121.847 187.318L127.271 169.496C127.379 169.152 127.562 168.872 127.82 168.656C128.078 168.441 128.38 168.334 128.724 168.334C129.155 168.334 129.499 168.474 129.757 168.753C130.037 169.012 130.166 169.345 130.145 169.754C130.145 169.883 130.113 170.066 130.048 170.303L123.72 189.74C123.548 190.213 123.289 190.579 122.945 190.838C122.622 191.074 122.245 191.193 121.815 191.193C121.384 191.193 120.986 191.064 120.62 190.805C120.276 190.526 120.039 190.17 119.91 189.74L114.712 173.274L109.513 189.74C109.384 190.17 109.137 190.526 108.771 190.805C108.426 191.064 108.039 191.193 107.608 191.193Z" fill="url(#paint6_linear_5:188)" style="mix-blend-mode:darken"/>
<path d="M136.463 191.354C135.516 191.354 134.634 191.161 133.816 190.773C133.02 190.386 132.385 189.826 131.911 189.094C131.437 188.341 131.201 187.48 131.201 186.511C131.201 184.918 131.825 183.648 133.073 182.701C134.343 181.754 136.194 181.281 138.627 181.281H142.533V181.022C142.533 179.602 142.178 178.579 141.468 177.955C140.779 177.331 139.692 177.019 138.207 177.019C137.389 177.019 136.657 177.083 136.011 177.213C135.387 177.342 134.688 177.535 133.913 177.794C133.741 177.837 133.601 177.858 133.493 177.858C133.17 177.858 132.89 177.74 132.654 177.503C132.417 177.266 132.298 176.976 132.298 176.631C132.298 176.05 132.578 175.641 133.138 175.404C134.968 174.63 136.829 174.242 138.724 174.242C140.209 174.242 141.457 174.543 142.469 175.146C143.502 175.749 144.255 176.535 144.729 177.503C145.224 178.45 145.472 179.483 145.472 180.603V189.74C145.472 190.149 145.321 190.493 145.02 190.773C144.74 191.053 144.395 191.193 143.986 191.193C143.577 191.193 143.233 191.053 142.953 190.773C142.673 190.493 142.533 190.149 142.533 189.74V188.9C140.941 190.536 138.917 191.354 136.463 191.354ZM137.561 188.771C138.508 188.771 139.423 188.545 140.306 188.093C141.188 187.62 141.931 187.039 142.533 186.35V183.638H139.014C135.764 183.638 134.139 184.488 134.139 186.188C134.139 186.963 134.397 187.587 134.914 188.061C135.452 188.535 136.334 188.771 137.561 188.771Z" fill="url(#paint7_linear_5:188)" style="mix-blend-mode:darken"/>
<path d="M151.849 191.193C151.44 191.193 151.096 191.053 150.816 190.773C150.536 190.493 150.396 190.149 150.396 189.74V168.786C150.396 168.377 150.536 168.032 150.816 167.752C151.096 167.451 151.44 167.3 151.849 167.3C152.279 167.3 152.635 167.44 152.914 167.72C153.194 168 153.334 168.355 153.334 168.786V189.74C153.334 190.149 153.184 190.493 152.882 190.773C152.602 191.053 152.258 191.193 151.849 191.193Z" fill="url(#paint8_linear_5:188)" style="mix-blend-mode:darken"/>
<path d="M159.889 191.193C159.48 191.193 159.136 191.053 158.856 190.773C158.576 190.493 158.436 190.149 158.436 189.74V168.786C158.436 168.377 158.576 168.032 158.856 167.752C159.136 167.451 159.48 167.3 159.889 167.3C160.32 167.3 160.675 167.44 160.955 167.72C161.234 168 161.374 168.355 161.374 168.786V189.74C161.374 190.149 161.224 190.493 160.922 190.773C160.643 191.053 160.298 191.193 159.889 191.193Z" fill="url(#paint9_linear_5:188)" style="mix-blend-mode:darken"/>
<path d="M173.838 191.354C171.212 191.354 169.156 190.612 167.671 189.126C166.207 187.62 165.476 185.51 165.476 182.798C165.476 181.27 165.755 179.86 166.315 178.569C166.875 177.277 167.736 176.233 168.898 175.437C170.06 174.64 171.492 174.242 173.192 174.242C174.785 174.242 176.163 174.619 177.325 175.372C178.487 176.104 179.37 177.094 179.972 178.343C180.575 179.569 180.877 180.915 180.877 182.378C180.877 182.787 180.737 183.132 180.457 183.412C180.198 183.691 179.843 183.831 179.391 183.831H168.446C168.618 185.338 169.178 186.511 170.125 187.351C171.072 188.19 172.396 188.61 174.096 188.61C175 188.61 175.786 188.524 176.453 188.352C177.142 188.179 177.809 187.932 178.455 187.609C178.627 187.523 178.821 187.48 179.036 187.48C179.381 187.48 179.682 187.598 179.94 187.835C180.198 188.072 180.328 188.373 180.328 188.739C180.328 189.213 180.048 189.611 179.488 189.934C178.649 190.407 177.82 190.762 177.002 190.999C176.184 191.236 175.129 191.354 173.838 191.354ZM177.971 181.442C177.906 180.387 177.626 179.505 177.131 178.795C176.658 178.084 176.066 177.568 175.355 177.245C174.645 176.9 173.924 176.728 173.192 176.728C172.46 176.728 171.739 176.9 171.029 177.245C170.319 177.568 169.727 178.084 169.253 178.795C168.78 179.505 168.511 180.387 168.446 181.442H177.971Z" fill="url(#paint10_linear_5:188)" style="mix-blend-mode:darken"/>
<path d="M190.447 191.354C187.304 191.354 185.733 189.934 185.733 187.092V177.083H183.44C183.268 177.083 183.117 177.03 182.988 176.922C182.881 176.793 182.827 176.642 182.827 176.47C182.827 176.255 182.924 176.072 183.117 175.921L187.508 171.627C187.702 171.433 187.885 171.336 188.057 171.336C188.23 171.336 188.369 171.401 188.477 171.53C188.606 171.659 188.671 171.81 188.671 171.982V174.565H192.319C192.685 174.565 192.986 174.683 193.223 174.92C193.46 175.157 193.578 175.458 193.578 175.824C193.578 176.169 193.46 176.47 193.223 176.728C192.986 176.965 192.685 177.083 192.319 177.083H188.671V186.834C188.671 187.674 188.865 188.212 189.252 188.448C189.661 188.664 190.167 188.771 190.769 188.771C191.2 188.771 191.63 188.707 192.061 188.578C192.147 188.556 192.233 188.535 192.319 188.513C192.427 188.491 192.556 188.481 192.707 188.481C193.008 188.481 193.277 188.599 193.514 188.836C193.751 189.051 193.869 189.32 193.869 189.643C193.869 190.138 193.621 190.515 193.126 190.773C192.287 191.161 191.394 191.354 190.447 191.354Z" fill="url(#paint11_linear_5:188)" style="mix-blend-mode:darken"/>
<defs>
<linearGradient id="paint0_linear_5:188" x1="12.653" y1="8.9975" x2="183.057" y2="8.99749" gradientUnits="userSpaceOnUse">
<stop stop-color="#00DBDE"/>
<stop offset="1" stop-color="#FC00FF"/>
</linearGradient>
<linearGradient id="paint1_linear_5:188" x1="3.24026" y1="167.306" x2="193.98" y2="167.306" gradientUnits="userSpaceOnUse">
<stop stop-color="#00DBDE"/>
<stop offset="1" stop-color="#FC00FF"/>
</linearGradient>
<linearGradient id="paint2_linear_5:188" x1="3.24026" y1="167.306" x2="193.98" y2="167.306" gradientUnits="userSpaceOnUse">
<stop stop-color="#00DBDE"/>
<stop offset="1" stop-color="#FC00FF"/>
</linearGradient>
<linearGradient id="paint3_linear_5:188" x1="3.24026" y1="167.306" x2="193.98" y2="167.306" gradientUnits="userSpaceOnUse">
<stop stop-color="#00DBDE"/>
<stop offset="1" stop-color="#FC00FF"/>
</linearGradient>
<linearGradient id="paint4_linear_5:188" x1="3.24026" y1="167.306" x2="193.98" y2="167.306" gradientUnits="userSpaceOnUse">
<stop stop-color="#00DBDE"/>
<stop offset="1" stop-color="#FC00FF"/>
</linearGradient>
<linearGradient id="paint5_linear_5:188" x1="3.24026" y1="167.306" x2="193.98" y2="167.306" gradientUnits="userSpaceOnUse">
<stop stop-color="#00DBDE"/>
<stop offset="1" stop-color="#FC00FF"/>
</linearGradient>
<linearGradient id="paint6_linear_5:188" x1="3.24026" y1="167.306" x2="193.98" y2="167.306" gradientUnits="userSpaceOnUse">
<stop stop-color="#00DBDE"/>
<stop offset="1" stop-color="#FC00FF"/>
</linearGradient>
<linearGradient id="paint7_linear_5:188" x1="3.24026" y1="167.306" x2="193.98" y2="167.306" gradientUnits="userSpaceOnUse">
<stop stop-color="#00DBDE"/>
<stop offset="1" stop-color="#FC00FF"/>
</linearGradient>
<linearGradient id="paint8_linear_5:188" x1="3.24026" y1="167.306" x2="193.98" y2="167.306" gradientUnits="userSpaceOnUse">
<stop stop-color="#00DBDE"/>
<stop offset="1" stop-color="#FC00FF"/>
</linearGradient>
<linearGradient id="paint9_linear_5:188" x1="3.24026" y1="167.306" x2="193.98" y2="167.306" gradientUnits="userSpaceOnUse">
<stop stop-color="#00DBDE"/>
<stop offset="1" stop-color="#FC00FF"/>
</linearGradient>
<linearGradient id="paint10_linear_5:188" x1="3.24026" y1="167.306" x2="193.98" y2="167.306" gradientUnits="userSpaceOnUse">
<stop stop-color="#00DBDE"/>
<stop offset="1" stop-color="#FC00FF"/>
</linearGradient>
<linearGradient id="paint11_linear_5:188" x1="3.24026" y1="167.306" x2="193.98" y2="167.306" gradientUnits="userSpaceOnUse">
<stop stop-color="#00DBDE"/>
<stop offset="1" stop-color="#FC00FF"/>
</linearGradient>
</defs>
</svg>
